<svg width="65" height="65" viewBox="0 0 65 65" fill="none" xmlns="http://www.w3.org/2000/svg">
<rect x="0.0873108" y="0.764114" width="64" height="64" rx="7.5" fill="#053A20"/>
<path d="M11.6429 25.4087H16.0339V15.0033H11.6429V10.8193H21.4951V16.1311H21.7534C21.9256 15.452 22.1593 14.7971 22.4545 14.1665C22.7743 13.5116 23.1679 12.9416 23.6353 12.4565C24.1273 11.9471 24.7177 11.5469 25.4065 11.2559C26.0953 10.9648 26.9071 10.8193 27.8419 10.8193H29.65V15.7673H25.591C24.238 15.7673 23.2171 16.1675 22.5283 16.9679C21.8395 17.7441 21.4951 18.7022 21.4951 19.8421V25.4087H27.7681V29.5926H11.6429V25.4087Z" fill="#0FC069"/>
<path d="M42.6244 30.0292C39.4264 30.0292 37.0033 29.156 35.3551 27.4097C33.7069 25.6633 32.8828 23.2863 32.8828 20.2787C32.8828 18.7507 33.0919 17.3803 33.5101 16.1675C33.9529 14.9305 34.5679 13.8875 35.3551 13.0386C36.1669 12.1654 37.1386 11.5106 38.2702 11.074C39.4264 10.6131 40.7179 10.3827 42.1447 10.3827C43.5715 10.3827 44.8507 10.6131 45.9823 11.074C47.1139 11.5106 48.0733 12.1412 48.8605 12.9659C49.6477 13.7905 50.2504 14.7971 50.6686 15.9856C51.1114 17.1498 51.3328 18.4596 51.3328 19.9149V21.5157H38.3071V21.8432C38.3071 23.0559 38.6884 24.0382 39.451 24.7901C40.2136 25.5178 41.3329 25.8816 42.8089 25.8816C43.9405 25.8816 44.9122 25.6755 45.724 25.2631C46.5358 24.8265 47.2369 24.2565 47.8273 23.5531L50.7793 26.7184C50.0413 27.6158 49.0081 28.392 47.6797 29.0469C46.3513 29.7018 44.6662 30.0292 42.6244 30.0292ZM42.1816 14.2392C41.0008 14.2392 40.0537 14.6031 39.3403 15.3307C38.6515 16.0341 38.3071 16.9922 38.3071 18.2049V18.496H45.9823V18.2049C45.9823 16.9679 45.6379 15.9977 44.9491 15.2943C44.2849 14.5909 43.3624 14.2392 42.1816 14.2392Z" fill="#0FC069"/>
<path d="M46.3844 55.4308L40.8623 43.546H40.4292L34.907 55.4308H30.3095L37.9388 38.5419H43.6053L51.1984 55.4308H46.3844Z" fill="white"/>
</svg>
